<?xml version="1.0" encoding="utf-8"?>
<!-- Generator: Adobe Illustrator 26.2.1, SVG Export Plug-In . SVG Version: 6.00 Build 0)  -->
<svg version="1.1" id="Ebene_1" xmlns="http://www.w3.org/2000/svg" xmlns:xlink="http://www.w3.org/1999/xlink" x="0px" y="0px"
	 viewBox="0 0 1500 1500" style="enable-background:new 0 0 1500 1500;" xml:space="preserve">
<style type="text/css">
	.st0{fill-rule:evenodd;clip-rule:evenodd;fill:#00C069;}
	.st1{fill:#FFFFFF;}
	.st2{fill-rule:evenodd;clip-rule:evenodd;fill:#FFFFFF;}
</style>
<g>
	<path id="HG" class="st0" d="M125,525.3c0-14,11.3-25.3,25.3-25.3h1199.4c14,0,25.3,11.3,25.3,25.3v449.4c0,14-11.3,25.3-25.3,25.3
		H150.3c-14,0-25.3-11.3-25.3-25.3V525.3L125,525.3z"/>
	<g id="billbee">
		<path class="st1" d="M681.9,775.7c0,9.4-1.3,18.2-3.4,26c-2.1,7.8-5.3,14.6-9.3,20.3c-4.1,5.7-9.1,10-15.1,13.2
			c-6,3.2-12.8,4.7-20.3,4.7c-9.2,0-17.2-1.8-23.7-5.3c-6.6-3.5-11.9-8.2-16.1-14.3l-0.6,17.3h-13v-179h13.9v71.2
			c4.2-6.6,9.5-11.6,16-15.2s14.2-5.5,23.4-5.5c7.6,0,14.5,1.5,20.4,4.6s11,7.3,15.2,12.9c4.2,5.6,7.3,12.3,9.4,20.3
			c2.2,7.8,3.2,16.7,3.2,26.5V775.7L681.9,775.7z M667.7,773.2c0-7.2-0.7-14.1-2.1-20.5c-1.4-6.4-3.6-11.9-6.6-16.6
			c-3-4.7-6.8-8.3-11.5-11c-4.7-2.7-10.2-4-16.8-4c-5.3,0-9.9,0.7-14,2.2c-4.1,1.4-7.5,3.4-10.5,5.8c-3,2.4-5.5,5.2-7.4,8.2
			c-2,3.1-3.7,6.4-4.9,9.6v56.8c1.5,3.4,3.3,6.5,5.6,9.3c2.2,2.9,4.9,5.5,7.8,7.5c3,2.2,6.5,3.8,10.4,5c3.9,1.2,8.3,1.8,13.2,1.8
			c6.3,0,11.7-1.3,16.4-4c4.7-2.7,8.4-6.3,11.5-10.9c3.1-4.7,5.3-10.1,6.7-16.5c1.4-6.4,2.2-13.2,2.2-20.6L667.7,773.2L667.7,773.2z
			"/>
		<path class="st1" d="M724.7,837.4h-14V711.3h14V837.4L724.7,837.4z M708.3,674.9c0-2.7,0.9-4.9,2.6-6.7c1.7-1.8,4.1-2.8,6.9-2.8
			c3,0,5.3,0.9,7,2.8c1.8,1.8,2.6,4.1,2.6,6.7c0,2.7-0.9,4.9-2.6,6.7c-1.8,1.8-4.1,2.7-7,2.7s-5.3-0.9-6.9-2.7
			S708.3,677.6,708.3,674.9L708.3,674.9z"/>
		<polygon class="st2" points="774.8,658.5 760.8,658.5 760.8,837.4 774.8,837.4 		"/>
		<polygon class="st2" points="824.9,658.5 810.9,658.5 810.9,837.4 824.9,837.4 		"/>
		<path class="st1" d="M961,775.7c0,9.4-1.3,18.2-3.4,26c-2.2,7.8-5.3,14.6-9.3,20.3c-4.1,5.7-9.1,10-15.1,13.2
			c-6,3.2-12.8,4.7-20.3,4.7c-9.2,0-17.2-1.8-23.7-5.3c-6.6-3.5-11.9-8.2-16.1-14.3l-0.6,17.3h-13v-179h13.9v71.2
			c4.2-6.6,9.5-11.6,16-15.2s14.3-5.5,23.4-5.5c7.6,0,14.5,1.5,20.4,4.6c6,3.1,11,7.3,15.2,12.9c4.2,5.6,7.3,12.3,9.4,20.3
			c2.1,7.8,3.2,16.7,3.2,26.5V775.7L961,775.7z M946.8,773.2c0-7.2-0.7-14.1-2.1-20.5c-1.4-6.4-3.6-11.9-6.6-16.6
			c-3-4.7-6.8-8.3-11.5-11c-4.7-2.7-10.2-4-16.8-4c-5.3,0-9.9,0.7-14,2.2c-4.1,1.4-7.5,3.4-10.5,5.8c-3,2.4-5.5,5.2-7.4,8.2
			s-3.7,6.4-4.9,9.6v56.8c1.5,3.4,3.3,6.5,5.6,9.3c2.3,2.9,4.9,5.5,7.8,7.5c3,2.2,6.5,3.8,10.4,5c3.9,1.2,8.3,1.8,13.2,1.8
			c6.3,0,11.7-1.3,16.4-4c4.7-2.7,8.4-6.3,11.5-10.9c3.1-4.7,5.3-10.1,6.7-16.5c1.4-6.4,2.2-13.2,2.2-20.6L946.8,773.2L946.8,773.2z
			"/>
		<path class="st1" d="M1036.9,839.7c-8.2,0-15.8-1.5-22.7-4.6s-12.9-7.3-17.9-12.8c-5-5.5-8.9-12-11.7-19.5
			c-2.8-7.5-4.2-15.8-4.2-24.8v-5c0-9.7,1.5-18.5,4.4-26.4c2.9-7.8,6.8-14.6,11.8-20.2c5-5.6,10.7-9.8,17.2-12.9
			c6.5-3.1,13.3-4.6,20.5-4.6c8,0,15.1,1.4,21.3,4.3c6.3,2.9,11.4,6.9,15.7,12c4.3,5.2,7.4,11.2,9.6,18.3c2.2,7.1,3.3,14.8,3.3,23.1
			v8.5h-89.9v2.7c0,7,1.1,13.4,3.2,19.5c2.1,6.1,5.1,11.4,8.8,15.9c3.8,4.5,8.3,8,13.6,10.6c5.3,2.6,11.1,3.9,17.6,3.9
			c7.4,0,14-1.4,19.8-4.1c5.7-2.7,10.9-7.1,15.6-13l8.7,6.7c-2.1,3.1-4.6,5.9-7.2,8.6c-2.8,2.7-6,5.1-9.6,7.1
			c-3.7,2-7.7,3.6-12.3,4.8C1047.8,839.1,1042.6,839.7,1036.9,839.7L1036.9,839.7z M1034.4,721c-5.3,0-10.1,1-14.7,3
			c-4.5,2-8.4,4.9-11.9,8.6s-6.3,8.2-8.5,13.4c-2.2,5.3-3.7,11-4.5,17.4h75.5V762c-0.2-5.3-1-10.4-2.6-15.3c-1.6-5-3.9-9.3-6.8-13.1
			c-3-3.8-6.7-6.9-11.1-9.1C1045.5,722,1040.3,721,1034.4,721L1034.4,721z"/>
		<path class="st1" d="M1156.8,839.7c-8.2,0-15.8-1.5-22.7-4.6s-12.9-7.3-17.9-12.8c-5-5.5-8.9-12-11.7-19.5
			c-2.8-7.5-4.2-15.8-4.2-24.8v-5c0-9.7,1.5-18.5,4.4-26.4c2.9-7.8,6.8-14.6,11.8-20.2c5-5.6,10.7-9.8,17.2-12.9
			c6.5-3.1,13.3-4.6,20.5-4.6c8,0,15.1,1.4,21.3,4.3c6.3,2.9,11.4,6.9,15.7,12c4.3,5.2,7.4,11.2,9.6,18.3c2.2,7.1,3.3,14.8,3.3,23.1
			v8.5h-89.9v2.7c0,7,1.1,13.4,3.2,19.5c2.1,6.1,5.1,11.4,8.8,15.9c3.8,4.5,8.3,8,13.6,10.6c5.3,2.6,11.1,3.9,17.6,3.9
			c7.4,0,14-1.4,19.8-4.1c5.7-2.7,10.9-7.1,15.6-13l8.7,6.7c-2.1,3.1-4.6,5.9-7.2,8.6c-2.8,2.7-6,5.1-9.6,7.1
			c-3.7,2-7.7,3.6-12.3,4.8C1167.6,839.1,1162.5,839.7,1156.8,839.7L1156.8,839.7z M1154.3,721c-5.3,0-10.1,1-14.7,3
			c-4.5,2-8.4,4.9-11.9,8.6s-6.3,8.2-8.5,13.4c-2.2,5.3-3.7,11-4.5,17.4h75.5V762c-0.2-5.3-1-10.4-2.6-15.3c-1.6-5-3.9-9.3-6.8-13.1
			c-3-3.8-6.6-6.9-11.1-9.1C1165.3,722,1160.1,721,1154.3,721L1154.3,721z"/>
	</g>
	<path id="BB" class="st2" d="M500.2,781c-1.6-4.5-3.8-8.5-6.7-12.2c-2.9-3.7-6.4-6.8-10.4-9.3c-4.1-2.6-8.6-4.4-13.6-5.5
		c4.3-1.4,8-3.3,11.3-5.7c3.4-2.4,6.2-5.2,8.5-8.4c2.4-3.2,4.2-6.8,5.4-10.6c1.2-3.9,1.8-8,1.8-12.4c0-7.7-1.3-14.5-3.9-20.2
		c-2.6-5.7-6.3-10.3-11.1-13.9c-4.9-3.7-10.7-6.4-17.6-8.1c-6.9-1.8-14.7-2.7-23.4-2.7h-36.6h-14h-36.6c-8.7,0-16.5,0.9-23.4,2.7
		s-12.8,4.5-17.6,8.1c-4.9,3.7-8.5,8.3-11.1,13.9c-2.6,5.7-3.9,12.3-3.9,20.2c0,4.4,0.6,8.5,1.8,12.4c1.2,3.9,3,7.4,5.4,10.6
		s5.2,6.1,8.5,8.4c3.4,2.4,7.1,4.3,11.3,5.7c-5.1,1.1-9.5,2.9-13.6,5.5c-4.1,2.6-7.5,5.7-10.4,9.3c-2.9,3.7-5.2,7.7-6.7,12.2
		c-1.6,4.5-2.4,9.1-2.4,14.1c0,7.8,1.3,14.8,4,20.8c2.6,6,6.4,11,11.2,15.1c4.9,4.1,10.6,7.1,17.4,9.2s14.2,3.1,22.3,3.1h43.9l0,0
		h14h43.9c8.1,0,15.6-1,22.3-3.1c6.7-2.1,12.5-5.2,17.4-9.2c4.9-4.1,8.5-9.1,11.2-15.1c2.6-6,4-12.9,4-20.8
		C502.6,790.3,501.8,785.5,500.2,781z M389.4,831.2H346c-6.3,0-11.9-0.8-16.9-2.5c-5-1.7-9.2-4-12.7-7.1s-6.2-6.9-8-11.2
		c-1.9-4.5-2.8-9.4-2.8-15c0-4.8,0.8-9.2,2.4-13.5c1.6-4.2,4-7.8,7.2-10.9s7.3-5.6,12.2-7.2c4.9-1.8,10.7-2.7,17.4-2.7h44.6
		L389.4,831.2L389.4,831.2z M389.4,749h-39.5c-12.1-0.2-21.4-3.1-28.1-8.5c-6.6-5.5-9.9-13.4-9.9-23.8c0-11,3.5-19.1,10.3-24.3
		c6.8-5.3,17.3-7.8,31.1-7.8h36.1V749z M404.4,684.5h36.1c13.9,0,24.2,2.6,31.1,7.8c6.8,5.3,10.3,13.3,10.3,24.3
		c0,10.4-3.3,18.4-9.9,23.8c-6.6,5.5-16,8.3-28.1,8.5h-39.5V684.5z M485.3,810.4c-1.9,4.5-4.5,8.1-8,11.2c-3.6,3.1-7.7,5.4-12.7,7.1
		c-5,1.7-10.6,2.5-16.9,2.5h-43.4v-70.1h44.6c6.6,0,12.4,0.9,17.4,2.7c4.9,1.8,8.9,4.2,12.2,7.2c3.3,3.1,5.7,6.8,7.2,10.9
		c1.6,4.2,2.4,8.6,2.4,13.5C488.1,801,487.2,806,485.3,810.4z"/>
</g>
</svg>
