<?xml version="1.0" standalone="no"?>
<!DOCTYPE svg PUBLIC "-//W3C//DTD SVG 20010904//EN"
 "http://www.w3.org/TR/2001/REC-SVG-20010904/DTD/svg10.dtd">
<svg version="1.0" xmlns="http://www.w3.org/2000/svg"
 width="1500.000000pt" height="1500.000000pt" viewBox="0 0 1500.000000 1500.000000"
 preserveAspectRatio="xMidYMid meet">
<metadata>
Created by potrace 1.14, written by Peter Selinger 2001-2017
</metadata>
<g transform="translate(0.000000,1500.000000) scale(0.100000,-0.100000)"
fill="#000000" stroke="none">
<path d="M7353 13062 c-76 -77 -167 -172 -203 -212 -36 -40 -77 -86 -92 -101
-16 -16 -28 -31 -28 -33 0 -3 -12 -18 -27 -34 -30 -31 -66 -74 -139 -164 -26
-32 -51 -58 -57 -58 -6 0 -8 -3 -4 -6 3 -4 -14 -32 -39 -63 -63 -79 -79 -99
-124 -161 -21 -30 -44 -60 -49 -66 -5 -7 -53 -76 -107 -155 -53 -79 -102 -149
-108 -154 -6 -6 -12 -17 -14 -25 -2 -8 -9 -22 -16 -30 -21 -25 -126 -200 -121
-200 3 0 -3 -9 -13 -20 -11 -12 -28 -40 -38 -63 -10 -23 -21 -44 -25 -47 -3
-3 -28 -48 -55 -100 -27 -52 -51 -97 -54 -100 -3 -3 -16 -30 -30 -60 -14 -30
-28 -56 -32 -58 -5 -2 -8 -10 -8 -17 0 -7 -11 -35 -24 -62 -44 -88 -145 -324
-151 -353 -2 -8 -4 -16 -5 -17 -2 -2 -3 -6 -5 -10 -1 -5 -5 -17 -10 -28 -31
-75 -43 -114 -38 -119 4 -3 1 -6 -5 -6 -7 0 -11 -3 -11 -7 1 -5 0 -11 -1 -15
-1 -5 -3 -11 -4 -15 -1 -5 -10 -35 -21 -68 -21 -70 -22 -73 -29 -103 -3 -12
-7 -26 -10 -30 -3 -5 -7 -19 -10 -33 -3 -13 -14 -57 -25 -98 -11 -41 -20 -77
-19 -80 0 -3 -1 -8 -2 -11 -2 -7 -8 -30 -14 -60 -3 -14 -10 -47 -16 -75 -6
-27 -13 -63 -15 -80 -2 -16 -6 -41 -8 -55 -13 -78 -18 -111 -22 -149 -2 -23
-7 -47 -11 -53 -5 -7 -3 -8 6 -3 9 6 11 4 5 -5 -5 -7 -10 -30 -12 -49 -16
-181 -23 -464 -11 -498 4 -12 3 -25 -3 -28 -5 -4 -6 -11 -3 -17 4 -6 9 -43 11
-82 4 -72 10 -141 13 -141 1 0 3 -18 5 -40 4 -44 12 -108 19 -142 3 -11 8 -43
11 -70 4 -26 11 -65 16 -86 11 -40 21 -100 22 -129 1 -10 5 -18 10 -18 4 0 7
-8 6 -17 -1 -10 0 -25 3 -33 9 -23 39 -132 44 -160 3 -14 14 -52 25 -85 12
-33 23 -71 25 -84 3 -13 11 -36 19 -52 8 -15 15 -34 15 -42 0 -8 11 -40 25
-71 14 -31 24 -58 24 -61 -1 -7 60 -162 75 -190 6 -11 11 -22 11 -25 3 -12 28
-68 57 -129 17 -37 32 -68 32 -71 3 -15 52 -105 59 -108 4 -2 5 -8 1 -13 -3
-5 0 -9 7 -9 7 0 10 -3 6 -6 -6 -6 12 -40 87 -174 21 -36 40 -73 43 -82 3 -10
9 -18 14 -18 5 0 9 -6 9 -13 0 -7 11 -29 25 -48 13 -20 21 -39 18 -43 -4 -3
-2 -6 4 -6 6 0 16 -13 23 -30 7 -16 16 -30 21 -30 5 0 9 -4 9 -10 0 -5 17 -36
37 -67 20 -32 36 -59 35 -61 -2 -1 3 -9 11 -16 8 -8 29 -38 48 -68 18 -29 37
-54 41 -56 5 -2 8 -10 8 -18 0 -8 4 -14 9 -14 5 0 11 -8 15 -17 6 -19 68 -106
104 -147 11 -13 18 -27 15 -29 -3 -3 4 -12 16 -19 12 -7 21 -16 21 -20 0 -11
130 -181 188 -246 12 -14 22 -28 22 -31 0 -3 17 -24 38 -47 20 -22 48 -55 61
-73 14 -17 36 -44 50 -59 14 -16 51 -56 81 -90 30 -35 83 -92 118 -128 34 -37
62 -70 62 -76 0 -5 4 -7 8 -4 4 2 17 -9 27 -25 11 -16 23 -29 26 -29 10 0 109
-102 109 -112 0 -4 5 -8 11 -8 7 0 20 -10 30 -21 l18 -21 43 41 c24 22 69 65
101 96 31 30 57 56 57 58 0 2 38 43 85 92 47 49 85 92 85 97 0 4 7 8 17 8 9 0
14 3 10 6 -3 3 9 22 26 41 18 19 41 45 52 57 11 12 39 44 62 72 23 27 50 59
60 71 10 12 32 39 48 59 17 21 41 50 55 64 13 14 23 27 22 30 -1 3 6 14 16 25
49 58 92 114 92 119 0 3 8 15 18 25 9 10 28 35 42 56 14 20 30 42 35 48 12 13
83 117 100 145 6 9 12 19 15 22 12 11 106 156 112 172 4 10 12 18 18 18 5 0 9
3 8 8 -3 9 43 86 54 90 4 2 8 8 8 14 0 9 58 111 100 178 5 8 17 31 27 50 9 19
22 38 27 42 6 4 7 8 2 8 -5 0 -2 8 6 18 18 20 73 134 70 145 -1 4 2 7 7 7 5 0
15 16 22 35 7 19 17 35 23 35 5 0 7 3 4 6 -4 3 6 31 22 62 15 31 31 67 34 80
4 12 12 22 17 22 5 0 9 6 7 13 -1 6 8 33 20 59 12 26 22 49 22 51 0 3 8 22 17
43 9 22 17 41 18 44 0 3 3 10 6 15 5 8 29 75 34 95 1 3 5 14 10 25 29 70 44
115 39 115 -4 0 -1 7 6 15 7 8 9 15 5 15 -4 0 -2 7 5 15 7 8 9 15 5 15 -4 0
-2 7 5 15 7 8 9 15 5 15 -4 0 -3 6 3 13 5 6 13 28 18 47 11 50 11 50 14 53 1
1 3 9 5 17 31 116 37 140 50 200 2 8 4 15 5 15 2 0 5 14 13 60 11 58 18 90 22
105 3 8 7 31 10 50 12 80 16 107 20 140 3 19 8 49 10 65 33 195 37 633 9 865
-3 25 -7 64 -7 87 -1 24 -5 43 -8 43 -3 0 -5 14 -4 30 1 17 -1 33 -4 35 -4 2
-8 19 -9 37 -3 33 -9 73 -12 73 -1 0 -3 11 -6 25 -4 23 -31 156 -39 190 -15
65 -28 117 -32 130 -9 22 -16 47 -27 98 -2 9 -13 46 -25 82 -12 36 -21 68 -21
73 0 4 -7 21 -15 37 -9 17 -13 30 -9 30 4 0 1 6 -5 13 -6 8 -12 22 -14 33 -2
10 -11 36 -20 58 -9 21 -17 42 -17 46 0 4 -9 28 -20 54 -12 25 -20 47 -19 48
1 2 -7 21 -18 43 -12 22 -21 43 -22 47 -1 4 -11 29 -23 55 -12 27 -22 50 -23
53 0 3 -12 28 -25 55 -13 28 -23 53 -22 58 1 4 -3 7 -9 7 -5 0 -7 5 -4 10 3 6
1 10 -4 10 -6 0 -11 7 -11 16 0 9 -9 29 -21 45 -11 16 -18 29 -15 29 4 0 -5
18 -19 40 -14 22 -23 40 -19 40 3 0 -2 7 -10 16 -9 8 -14 20 -11 25 4 5 2 9
-3 9 -6 0 -12 10 -16 23 -3 12 -14 31 -24 42 -10 11 -19 24 -19 28 -3 19 -29
67 -35 67 -5 0 -8 6 -8 14 0 8 -3 16 -7 18 -8 3 -44 66 -67 115 -6 13 -14 23
-18 23 -5 0 -8 7 -8 15 0 8 -4 15 -9 15 -5 0 -11 8 -15 18 -5 16 -20 42 -39
66 -18 25 -77 118 -77 123 0 3 -9 14 -21 24 -11 9 -19 19 -17 21 4 4 -64 102
-74 106 -4 2 -8 9 -8 16 0 7 -9 21 -20 31 -11 10 -20 22 -20 26 0 8 -20 36
-47 64 -7 8 -13 18 -13 23 0 6 -4 12 -8 14 -5 2 -28 30 -53 63 -24 33 -46 62
-49 65 -3 3 -21 25 -40 50 -19 25 -47 59 -62 75 -15 17 -28 33 -28 36 0 6 -39
51 -107 126 -18 19 -33 37 -33 40 0 4 -18 24 -40 45 -22 22 -40 42 -40 45 0
13 -378 393 -390 393 -5 0 -71 -62 -147 -138z"/>
<path d="M1566 7482 c-8 -7 -24 -9 -136 -11 l-70 -1 5 -322 c3 -178 7 -336 9
-351 3 -16 7 -63 11 -105 7 -87 12 -142 21 -222 3 -30 6 -74 7 -97 1 -24 5
-43 8 -43 4 0 7 -10 6 -22 0 -20 5 -64 18 -143 2 -11 6 -36 9 -55 2 -19 8 -53
12 -75 4 -22 8 -49 9 -60 1 -11 5 -27 8 -35 3 -8 8 -33 12 -55 7 -46 13 -81
20 -113 4 -21 6 -30 20 -97 3 -16 8 -37 11 -45 3 -8 8 -28 11 -45 3 -16 18
-79 35 -140 16 -60 31 -121 33 -135 2 -14 11 -45 20 -70 9 -25 18 -53 20 -63
6 -27 26 -90 36 -109 5 -10 9 -26 9 -36 0 -10 3 -22 8 -26 4 -4 7 -11 8 -14 0
-4 3 -14 6 -22 18 -48 53 -146 54 -152 1 -5 3 -11 4 -15 1 -5 2 -11 1 -15 0
-5 3 -8 9 -8 5 0 10 -7 10 -15 0 -8 11 -39 24 -69 13 -30 22 -57 18 -60 -3 -3
1 -6 8 -6 7 0 11 -3 7 -6 -3 -3 3 -22 13 -42 20 -40 54 -114 56 -122 10 -34
18 -50 25 -50 5 0 8 -3 7 -7 -4 -12 65 -153 74 -153 4 0 8 -6 8 -14 0 -18 60
-130 72 -134 4 -2 8 -12 8 -23 0 -10 3 -19 8 -19 4 0 14 -15 22 -32 7 -18 18
-37 22 -43 19 -22 128 -197 128 -205 0 -4 3 -10 8 -12 10 -4 72 -85 72 -94 0
-3 12 -21 28 -39 15 -18 36 -45 47 -59 52 -67 124 -154 157 -188 14 -15 25
-28 22 -28 -2 0 52 -56 120 -125 68 -69 129 -125 135 -125 6 0 11 -4 11 -9 0
-5 30 -34 68 -66 37 -31 76 -64 87 -73 31 -26 80 -65 111 -87 15 -11 32 -25
38 -30 26 -24 165 -115 176 -115 6 0 9 -4 6 -8 -2 -4 16 -19 42 -32 26 -14 49
-27 52 -31 3 -4 22 -16 43 -28 20 -11 52 -30 71 -40 18 -11 44 -25 57 -33 13
-7 32 -19 42 -27 9 -8 17 -11 17 -6 0 4 6 2 14 -4 17 -15 286 -151 286 -145 0
2 17 -5 38 -15 50 -26 125 -59 135 -60 4 0 21 -8 37 -16 17 -9 30 -12 30 -8 0
5 4 3 8 -3 4 -5 30 -18 57 -28 28 -10 57 -20 65 -23 19 -7 10 -4 170 -59 115
-40 220 -73 280 -89 8 -2 42 -12 75 -21 33 -9 67 -18 75 -19 8 -2 16 -4 18 -5
7 -6 96 -24 106 -22 4 2 13 -1 20 -6 6 -5 27 -12 46 -16 19 -3 46 -9 60 -12
42 -9 74 -16 96 -18 11 -1 26 -6 33 -10 7 -4 15 -6 18 -3 3 3 15 2 27 -2 20
-8 88 -20 146 -27 14 -1 25 -3 25 -4 0 -2 25 -7 75 -15 43 -6 67 -10 128 -19
33 -6 108 -15 247 -30 33 -4 71 -9 85 -11 25 -4 156 -14 260 -20 30 -2 55 -5
55 -5 0 -1 134 -3 298 -5 l297 -3 1 21 c6 139 -4 516 -17 692 -3 33 -6 78 -7
100 -1 22 -6 46 -10 53 -5 7 -3 12 5 12 8 0 9 3 3 8 -5 4 -11 18 -11 32 -1 29
-11 123 -20 189 -3 26 -7 62 -9 81 -2 19 -4 35 -5 35 -3 0 -7 29 -14 92 -4 35
-9 69 -12 77 -3 8 -7 29 -9 48 -2 18 -4 34 -5 36 -2 1 -3 10 -4 20 -1 9 -7 46
-14 82 -7 36 -14 76 -16 90 -3 14 -5 25 -7 25 -1 0 -3 9 -5 20 -6 34 -13 68
-24 115 -18 74 -31 133 -37 168 -3 17 -8 32 -12 32 -4 0 -7 8 -8 18 -3 33 -11
70 -21 89 -5 10 -7 24 -5 31 3 6 1 12 -4 12 -5 0 -10 8 -11 18 -2 22 -7 43
-15 62 -8 20 -41 133 -43 145 0 6 -7 24 -13 40 -7 17 -14 37 -16 45 -2 8 -4
16 -5 18 -2 1 -3 5 -4 10 -2 9 -32 90 -63 172 -38 98 -40 102 -57 142 -9 20
-16 41 -16 47 0 6 -4 11 -10 11 -5 0 -9 3 -8 8 4 10 -64 166 -74 170 -5 2 -6
8 -2 13 3 5 0 9 -5 9 -6 0 -11 6 -11 13 0 12 -80 177 -91 187 -3 3 -13 22 -22
43 -10 20 -22 37 -28 37 -6 0 -8 4 -5 9 3 5 -5 25 -19 45 -13 20 -22 36 -19
36 3 0 -1 6 -8 14 -7 8 -26 38 -43 66 -16 29 -37 61 -47 70 -9 10 -14 20 -12
23 2 2 -7 16 -21 31 -13 14 -24 29 -24 32 1 6 -164 230 -206 279 -14 17 -40
47 -58 68 -57 68 -81 92 -89 90 -4 -2 -7 1 -5 6 2 10 -149 165 -244 251 -34
30 -68 61 -75 68 -7 6 -17 12 -23 12 -6 0 -11 5 -11 10 0 6 -11 15 -25 22 -13
6 -22 15 -19 19 3 5 1 9 -4 9 -4 0 -18 9 -30 20 -12 12 -22 18 -22 15 0 -5
-37 24 -66 53 -7 6 -16 12 -19 12 -4 0 -27 16 -51 36 -24 20 -44 33 -44 29 0
-5 -8 2 -19 13 -10 12 -21 19 -24 15 -4 -3 -9 2 -13 11 -3 9 -12 16 -20 16 -8
0 -14 5 -14 10 0 6 -5 10 -10 10 -11 0 -122 69 -147 90 -7 6 -13 8 -13 6 0 -3
-16 6 -36 19 -20 14 -40 22 -45 19 -5 -3 -9 -1 -9 5 0 6 -17 18 -37 28 -21 9
-40 20 -43 24 -3 3 -16 10 -30 14 -14 4 -27 11 -30 14 -6 8 -149 82 -153 79
-1 -1 -41 17 -90 40 -48 23 -94 42 -102 42 -8 0 -15 3 -15 8 0 6 -37 22 -85
36 -5 1 -27 10 -48 19 -20 9 -90 35 -155 57 -64 23 -125 46 -134 51 -10 5 -27
9 -37 9 -11 0 -23 5 -26 11 -4 6 -13 8 -20 5 -7 -2 -16 -1 -21 4 -5 5 -21 11
-36 14 -15 2 -33 8 -38 11 -6 4 -26 9 -43 12 -18 3 -38 10 -44 15 -7 6 -13 8
-13 5 0 -4 -18 0 -39 8 -22 7 -52 16 -68 19 -15 3 -55 12 -88 21 -33 9 -72 17
-87 18 -16 1 -28 5 -28 8 0 4 -17 9 -37 13 -21 3 -48 8 -61 10 -12 3 -32 8
-45 10 -12 3 -33 7 -47 10 -61 13 -152 29 -167 29 -7 0 -13 3 -13 6 0 3 -15 7
-33 8 -17 1 -45 4 -62 7 -16 3 -55 8 -85 12 -83 10 -95 12 -95 14 0 1 -13 4
-30 5 -16 2 -52 6 -80 10 -77 11 -125 16 -182 18 -29 1 -53 4 -53 7 0 3 -26 6
-57 7 -32 1 -83 4 -113 7 -62 6 -289 17 -395 19 -38 1 -75 5 -81 9 -6 4 -14 4
-18 0z"/>
<path d="M13347 7473 c-1 0 -76 -4 -167 -7 -150 -6 -255 -12 -335 -19 -17 -2
-35 -6 -42 -10 -6 -4 -14 -3 -18 3 -4 6 -11 7 -17 3 -7 -3 -34 -7 -62 -9 -28
-1 -51 -3 -51 -4 0 -1 -13 -4 -30 -5 -35 -4 -129 -15 -165 -20 -14 -2 -41 -6
-60 -9 -19 -3 -51 -8 -70 -11 -19 -3 -49 -7 -65 -9 -17 -2 -44 -6 -60 -10 -27
-5 -56 -10 -120 -21 -19 -3 -52 -10 -105 -21 -14 -3 -36 -7 -50 -9 -14 -2 -25
-4 -25 -5 0 -1 -9 -3 -19 -5 -60 -11 -173 -37 -186 -42 -16 -7 -53 -14 -82
-16 -10 -1 -18 -4 -18 -7 0 -3 -28 -12 -62 -19 -35 -8 -69 -18 -75 -24 -7 -5
-13 -7 -13 -3 0 3 -12 1 -27 -5 -16 -6 -36 -12 -46 -14 -41 -9 -283 -89 -294
-98 -7 -5 -13 -7 -13 -3 0 4 -13 0 -30 -9 -16 -9 -30 -13 -30 -10 0 3 -11 -2
-25 -11 -14 -9 -25 -13 -25 -10 0 4 -12 1 -27 -7 -25 -13 -56 -26 -128 -53
-11 -4 -23 -6 -27 -6 -5 1 -8 -2 -8 -8 0 -5 -7 -10 -15 -10 -8 0 -23 -4 -33
-10 -33 -19 -233 -110 -242 -110 -4 0 -10 -3 -12 -7 -2 -5 -41 -27 -88 -51
-89 -45 -142 -73 -150 -82 -3 -3 -26 -16 -52 -29 -27 -13 -48 -27 -48 -31 0
-5 -11 -11 -25 -14 -14 -4 -25 -11 -25 -17 0 -6 -4 -7 -10 -4 -5 3 -10 1 -10
-4 0 -6 -7 -11 -15 -11 -8 0 -15 -5 -15 -11 0 -5 -4 -7 -10 -4 -5 3 -10 2 -10
-3 0 -5 -26 -25 -57 -45 -59 -37 -102 -69 -135 -99 -10 -10 -18 -16 -18 -13 0
3 -33 -20 -72 -52 -40 -32 -79 -62 -85 -68 -18 -14 -61 -52 -116 -102 -25 -24
-51 -43 -58 -43 -7 0 -10 -2 -7 -5 5 -5 -59 -75 -68 -75 -5 0 -54 -50 -54 -55
0 -3 -17 -22 -37 -43 -72 -73 -113 -121 -113 -132 0 -6 -4 -8 -10 -5 -5 3 -10
2 -10 -3 0 -5 -9 -20 -21 -33 -11 -13 -30 -37 -42 -52 -12 -16 -27 -34 -33
-41 -6 -6 -43 -56 -82 -111 -39 -55 -76 -105 -82 -112 -5 -7 -10 -17 -10 -22
0 -6 -6 -14 -14 -18 -8 -4 -16 -12 -17 -18 -3 -14 -32 -59 -44 -67 -5 -4 -6
-8 -1 -8 4 0 -3 -15 -18 -34 -14 -19 -26 -42 -26 -52 0 -10 -3 -15 -6 -11 -5
5 -27 -31 -89 -150 -12 -23 -28 -49 -35 -58 -7 -8 -9 -15 -5 -15 5 0 0 -9 -11
-21 -10 -12 -18 -23 -16 -25 1 -2 -5 -18 -13 -34 -9 -17 -12 -30 -8 -30 5 0 0
-5 -9 -11 -10 -5 -18 -16 -18 -23 0 -7 -13 -40 -30 -74 -16 -34 -30 -64 -30
-67 0 -2 -10 -28 -23 -57 -13 -29 -32 -73 -42 -98 -10 -25 -26 -64 -36 -87
-11 -24 -19 -49 -19 -56 0 -8 -3 -17 -7 -21 -4 -3 -8 -12 -9 -19 -3 -12 -80
-239 -91 -267 -3 -8 -7 -22 -8 -30 -3 -22 -26 -102 -36 -125 -5 -11 -11 -32
-13 -47 -3 -15 -8 -33 -12 -40 -4 -7 -9 -24 -10 -38 -3 -21 -10 -50 -19 -80
-1 -3 -5 -23 -10 -45 -13 -56 -12 -55 -14 -57 -2 -2 -4 -13 -7 -25 -2 -13 -6
-33 -8 -45 -3 -13 -5 -23 -6 -23 -2 0 -6 -20 -13 -60 -3 -16 -12 -64 -20 -105
-9 -41 -18 -87 -21 -102 -2 -15 -8 -33 -12 -39 -5 -8 -3 -9 5 -4 10 6 11 3 3
-11 -9 -18 -13 -42 -27 -154 -7 -52 -13 -85 -15 -85 -2 0 -6 -28 -13 -105 -4
-30 -9 -80 -13 -110 -4 -30 -7 -76 -8 -102 -1 -27 -3 -48 -6 -48 -3 0 -6 -17
-7 -37 0 -21 -4 -85 -8 -143 -15 -221 -22 -640 -11 -658 8 -13 706 -5 706 8 0
3 26 6 58 6 31 1 82 4 112 7 49 6 82 9 195 21 66 8 178 23 225 31 14 3 45 7
70 10 48 6 85 12 85 15 0 3 61 12 92 13 18 1 33 5 33 8 0 3 21 9 48 12 47 7
87 14 87 17 0 2 56 11 80 13 11 1 26 6 32 10 7 4 28 9 46 11 19 2 38 5 43 8 9
6 69 20 79 19 2 0 23 6 46 15 23 8 44 12 47 9 3 -3 10 -1 16 4 6 5 36 14 66
21 30 7 70 19 87 27 18 7 35 13 38 13 3 0 6 0 8 1 3 1 35 9 50 12 6 1 17 5 22
8 6 4 24 10 40 14 33 9 34 9 55 17 16 6 172 61 180 64 3 1 15 5 28 9 12 4 22
11 22 15 0 5 9 6 20 3 11 -3 20 0 20 6 0 6 8 11 18 11 10 0 22 3 26 8 4 4 11
7 14 8 13 1 67 24 94 39 14 8 33 15 42 15 9 0 16 5 16 12 0 6 3 8 6 5 4 -3 16
-1 28 5 11 7 23 13 26 13 14 3 66 31 71 38 3 5 9 8 13 7 11 -2 180 82 188 94
4 6 8 7 8 2 0 -5 6 -4 13 2 6 5 35 22 62 37 28 15 69 40 92 55 22 16 51 31 62
35 12 3 21 10 21 15 0 4 8 10 18 14 17 5 52 26 62 36 10 10 101 70 106 70 3 0
11 6 18 12 8 7 24 20 36 28 12 8 28 21 36 27 7 7 15 13 18 13 3 0 15 8 27 18
29 24 52 42 95 77 21 17 49 40 61 53 13 12 27 22 30 22 4 0 23 18 44 40 20 21
38 38 40 36 2 -2 57 50 122 115 65 66 116 119 113 119 -2 0 12 17 32 38 57 58
206 242 197 242 -3 0 5 11 19 24 15 13 26 28 26 34 0 6 4 12 8 14 12 4 72 95
72 107 0 6 4 11 9 11 7 0 71 95 71 106 0 3 9 14 20 26 10 12 17 25 14 30 -3 4
0 8 7 8 7 0 10 3 6 6 -3 3 2 14 11 25 10 10 29 41 42 68 14 28 28 51 31 51 4
0 10 12 14 27 3 15 10 30 14 33 11 7 141 274 141 288 0 7 5 12 12 12 6 0 8 3
5 7 -4 3 -2 12 4 20 6 7 8 13 3 13 -5 0 -3 4 4 9 8 5 15 20 15 34 1 14 5 23
10 20 4 -2 7 4 7 14 0 11 4 23 8 29 11 12 96 227 97 244 0 3 3 10 6 15 10 17
43 120 41 128 -1 4 2 7 7 7 5 0 8 8 7 17 -2 10 5 32 15 50 10 17 16 33 13 36
-3 2 0 17 7 33 10 27 16 48 23 81 1 7 5 16 9 19 4 4 7 15 7 25 0 10 7 38 14
61 8 24 18 57 21 73 9 47 10 49 16 60 4 6 5 18 4 28 -2 9 0 17 4 17 4 0 8 6 9
13 2 25 13 83 19 97 3 8 7 22 8 30 2 16 16 85 22 110 2 8 6 29 8 45 2 17 10
53 18 82 8 29 10 50 4 46 -5 -3 -4 4 2 15 6 12 11 25 10 29 -1 4 0 10 1 13 4
10 9 47 16 100 3 30 9 59 12 64 3 5 6 25 8 45 5 54 14 133 19 161 2 14 7 54
10 90 3 36 8 85 11 110 3 25 6 71 7 102 1 32 4 58 7 58 11 0 23 730 12 731
-17 1 -284 4 -285 2z"/>
</g>
</svg>
